<?xml version="1.0" encoding="UTF-8"?>
<svg id="Layer_1" xmlns="http://www.w3.org/2000/svg" version="1.1" viewBox="0 0 168.1 61.7">
  <!-- Generator: Adobe Illustrator 29.0.0, SVG Export Plug-In . SVG Version: 2.1.0 Build 186)  -->
  <defs>
    <style>
      .st0 {
        fill: #4a9462;
      }

      .st1 {
        fill: #bfb2b6;
      }

      .st2 {
        fill: #ff7f40;
      }

      .st3 {
        fill: #0b179b; /*It was #fff*/
      }

      .st4 {
        fill: #ffc844;
      }
    </style>
  </defs>
  <g>
    <path class="st3" d="M76.7,30.9h0c0-7,5.4-12.5,12.6-12.5s8,2,10.1,5l-5,3.9c-1.4-1.7-2.9-2.8-5.2-2.8-3.3,0-5.7,2.8-5.7,6.3h0c0,3.6,2.4,6.4,5.7,6.4s4-1.2,5.4-2.9l5,3.5c-2.2,3.1-5.3,5.4-10.6,5.4s-12.3-5.2-12.3-12.3Z"/>
    <path class="st3" d="M103.8,18.9h7l4.2,13.8,4.6-13.9h5.7l4.6,13.9,4.2-13.8h6.8l-8,24h-5.8l-4.8-13.7-4.8,13.7h-5.8l-8-24Z"/>
    <path class="st3" d="M144.7,30.9h0c0-7,5.4-12.5,12.6-12.5s8,2,10.1,5l-5,3.9c-1.4-1.7-2.9-2.8-5.2-2.8-3.3,0-5.7,2.8-5.7,6.3h0c0,3.6,2.4,6.4,5.7,6.4s4-1.2,5.4-2.9l5,3.5c-2.2,3.1-5.3,5.4-10.6,5.4s-12.3-5.2-12.3-12.3Z"/>
  </g>
  <path class="st3" d="M18.1,30.9h0c0-6.9,5.5-12.5,12.9-12.5s12.8,5.5,12.8,12.3h0c0,6.9-5.5,12.5-12.9,12.5s-12.8-5.5-12.8-12.3Z"/>
  <path class="st1" d="M13.1,19.1c1.1-1.7,2.2-3.5,3.4-5.1,4.1-5.4,8.9-9.8,15.3-12.1,4.3-1.6,8.7-2,13.1-1.1,6.9,1.4,11.1,8.8,9.7,16.1-.2.9-.4,1.8-.6,2.7-.1,0,.1,0,0,0-.1-.3-.3-.6-.5-.9-2.6-4.6-6.7-7.1-11.7-8.1-7-1.5-13.6,0-19.9,3.2-2.9,1.4-5.5,3.3-8.2,5-.2.2-.5.3-.8.4-.2-.1.2.1,0,0Z"/>
  <path class="st4" d="M7.7,42.8c.5.8.9,1.4,1.2,1.8,3.6,5.3,8.9,6.9,15,7.2,6,.3,11.7-1.1,17-4,2.8-1.5,5.4-3.2,8.4-5-.4.7-.6,1.1-.8,1.5-4.2,7.5-10.5,12.5-18.4,15.5-4.6,1.8-9.5,2.4-14.2.7-4.6-1.7-7.8-4.9-8.5-9.9-.3-2.1-.5-4.3,0-6.3s.2-.8.4-1.4Z"/>
  <g>
    <g>
      <path class="st3" d="M18.9,49.1s0,0,0,0h0Z"/>
      <path class="st3" d="M16,6.4c-5.2-.6-11.2,1.7-13.7,6.9-2.9,6.1-2,12.2.4,18,2,5,5.2,9.3,9.4,12.8,2.2,1.8,4.6,3.3,6.9,5-.2-.4-.5-.7-.8-1-5.8-7.5-8.6-16.4-7.8-26.1.5-6,2.2-10.4,7.4-13.6.3-.2,1.5-.8,2-1.3-1.5-.4-2.7-.5-3.8-.6Z"/>
    </g>
    <g>
      <path class="st0" d="M18.9,49.1s0,0,0,0h0Z"/>
      <path class="st0" d="M16,6.4c-5.2-.6-11.2,1.7-13.7,6.9-2.9,6.1-2,12.2.4,18,2,5,5.2,9.3,9.4,12.8,2.2,1.8,4.6,3.3,6.9,5-.2-.4-.5-.7-.8-1-5.8-7.5-8.6-16.4-7.8-26.1.5-6,2.2-10.4,7.4-13.6.3-.2,1.5-.8,2-1.3-1.5-.4-2.7-.5-3.8-.6Z"/>
    </g>
  </g>
  <g>
    <g>
      <path class="st3" d="M61.2,38.3c-.6-4.4-2.2-8.5-4.6-12.3-3.2-5.3-7.1-10.1-12.8-12.4-.5-.2-.8-.3-1.4-.5,1.7,2.9,3.4,5.4,4.8,8.1,2.8,5.3,4.6,10.9,4.3,17-.3,6.6-3.7,13.2-9.6,16.8,1.6.2,2.8.3,3.9.5,4.8.5,8.9-.9,12.1-4.7,3.1-3.7,3.7-7.9,3.2-12.5Z"/>
      <polygon class="st3" points="42 55.1 42 55.1 42 55.1 42 55.1"/>
    </g>
    <g>
      <path class="st2" d="M61.2,38.3c-.6-4.4-2.2-8.5-4.6-12.3-3.2-5.3-7.1-10.1-12.8-12.4-.5-.2-.8-.3-1.4-.5,1.7,2.9,3.4,5.4,4.8,8.1,2.8,5.3,4.6,10.9,4.3,17-.3,6.6-3.7,13.2-9.6,16.8,1.6.2,2.8.3,3.9.5,4.8.5,8.9-.9,12.1-4.7,3.1-3.7,3.7-7.9,3.2-12.5Z"/>
      <polygon class="st2" points="42 55.1 42 55.1 42 55.1 42 55.1"/>
    </g>
  </g>
</svg>
